PathFileType	4	(X/Y/Z)	D:\Documents\Paper\paper_current\paper_step_1_data\data_step_3\marker\70DL\subject_01.tsv
DataRate	CameraRate	NumFrames	NumMarkers	Units	OrigDataRate	OrigDataStartFrame	OrigNumFrames
200	200	11	39	mm	200	3255	200
Frame#	Time	Top.Head			L.Acromium			R.Acromium			Sternum			L.ASIS			R.ASIS			V.Sacral			L.Ankle.Lat			L.Toe.Tip			R.Heel			R.Ankle.Med			R.Ankle.Lat			L.Toe.Med			L.Toe.Lat			L.Heel			L.Ankle.Med			L.Shank1			L.Shank2			R.Toe.Tip			R.Toe.Med			R.Toe.Lat			L.Thigh2			L.Thigh1			L.Thigh3			R.Thigh3			R.Thigh1			R.Thigh2			R.Shank1			R.Shank2			R.Shank3			L.Shank3			L.Shank4			R.Shank4			L.Thigh4			R.Thigh4			R.Heel.Lat			R.Heel.Med			L.Heel.Lat			L.Heel.Med		
		X1	Y1	Z1	X2	Y2	Z2	X3	Y3	Z3	X4	Y4	Z4	X5	Y5	Z5	X6	Y6	Z6	X7	Y7	Z7	X8	Y8	Z8	X9	Y9	Z9	X10	Y10	Z10	X11	Y11	Z11	X12	Y12	Z12	X13	Y13	Z13	X14	Y14	Z14	X15	Y15	Z15	X16	Y16	Z16	X17	Y17	Z17	X18	Y18	Z18	X19	Y19	Z19	X20	Y20	Z20	X21	Y21	Z21	X22	Y22	Z22	X23	Y23	Z23	X24	Y24	Z24	X25	Y25	Z25	X26	Y26	Z26	X27	Y27	Z27	X28	Y28	Z28	X29	Y29	Z29	X30	Y30	Z30	X31	Y31	Z31	X32	Y32	Z32	X33	Y33	Z33	X34	Y34	Z34	X35	Y35	Z35	X36	Y36	Z36	X37	Y37	Z37	X38	Y38	Z38	X39	Y39	Z39
3256	16.275	667.197	1205.192	486.745	445.502	1098.263	278.047	375.112	1086.423	583.965	453.74	966.198	440.692	302.726	660.085	266.358	253.786	647.998	499.194	110.632	662.776	356.098	287.497	104.838	227.441	456.382	41.966	230.631	189.775	49.541	515.256	328.904	90.744	482.539	287.687	99.889	567.807	404.422	38.747	289.026	369.278	44.624	189.033	173.997	56.335	265.013	292.195	97.896	322.782	526.911	278.044	247.532	477.339	214.404	227.349	469.593	34.721	599.116	417.978	35.652	538.574	360.695	36.871	633.017	486.656	495.335	248.566	419.845	541.622	234.824	391.527	492.718	206.145	369.529	416.362	540.599	406.264	462.161	566.982	475.31	417.074	562.645	509.248	291.39	587.766	450.205	228.103	585.66	460.292	335.341	583.989	488.877	318.988	230.813	426.008	252.338	214.209	404.736	274.123	585.663	462.808	441.926	219.648	443.07	369.646	535.755	220.98	48.115	576.352	263.78	19.051	489.563	225.084	42.75	209.421	232.217	31.071	311.572
3257	16.28	667.798	1207.752	486.469	445.586	1101.112	277.972	375.229	1089.168	583.889	454.065	969.044	440.618	303.065	662.541	266.442	254.105	650.595	499.246	111.013	665.56	356.145	287.215	104.745	227.197	456.312	42.019	230.666	189.674	49.183	515.336	328.627	90.781	482.652	287.296	99.668	567.877	404.369	38.784	289.015	369.226	44.576	188.977	173.879	56.024	264.857	292.002	97.949	322.605	526.097	278.77	247.37	476.713	215.049	227.149	469.485	34.787	599.028	417.906	35.768	538.544	360.643	36.802	633.063	486.396	496.588	248.514	419.808	543.215	234.815	391.249	494.483	206.087	368.848	417.74	540.538	405.776	463.265	567.139	474.591	417.843	562.746	508.494	291.859	587.875	449.607	228.466	585.785	459.457	335.707	584.102	487.496	320.496	231.095	425.232	252.876	213.986	404.025	274.379	585.802	462.496	443.413	219.448	442.158	370.671	535.648	220.872	47.764	576.498	263.663	19.048	489.613	225.009	42.456	209.318	232.145	31.015	311.504
3258	16.285	668.336	1210.502	486.197	445.629	1104.085	277.891	375.332	1092.033	583.8	454.383	972.021	440.537	303.373	665.088	266.5	254.438	653.276	499.317	111.382	668.443	356.231	286.894	104.617	226.958	456.231	42.079	230.705	189.542	48.743	515.445	328.314	90.792	482.811	286.806	99.39	567.987	404.309	38.819	289.009	369.163	44.525	188.924	173.736	55.629	264.707	291.771	97.946	322.439	525.23	279.498	247.24	476.027	215.679	226.956	469.367	34.878	598.941	417.821	35.918	538.531	360.58	36.693	633.139	486.095	497.861	248.476	419.74	544.84	234.821	390.928	496.291	206.042	368.127	419.176	540.515	405.276	464.423	567.298	473.85	418.636	562.824	507.713	292.296	587.977	448.983	228.79	585.923	458.577	336.04	584.257	486.086	321.761	231.274	424.468	253.307	213.734	403.277	274.593	585.997	462.052	444.894	219.293	441.186	371.729	535.561	220.734	47.309	576.706	263.492	19.058	489.66	224.907	42.113	209.21	232.061	30.901	311.441
3259	16.29	668.803	1213.443	485.927	445.634	1107.169	277.802	375.435	1095.009	583.696	454.696	975.115	440.449	303.713	667.651	266.608	254.782	656.031	499.404	111.738	671.419	356.352	286.543	104.456	226.73	456.14	42.148	230.747	189.381	48.244	515.584	327.986	90.772	483.01	286.253	99.075	568.134	404.242	38.853	289.009	369.089	44.472	188.877	173.571	55.156	264.565	291.507	97.89	322.287	524.327	280.248	247.161	475.283	216.304	226.765	469.24	34.985	598.85	417.721	36.085	538.541	360.51	36.555	633.237	485.75	499.153	248.445	419.637	546.495	234.835	390.564	498.139	206.009	367.372	420.686	540.545	404.771	465.654	567.459	473.089	419.478	562.895	506.905	292.716	588.075	448.337	229.087	586.073	457.652	336.357	584.455	484.655	322.765	231.338	423.715	253.639	213.46	402.5	274.775	586.243	461.472	446.366	219.187	440.157	372.833	535.519	220.57	46.769	576.964	263.262	19.085	489.693	224.776	41.729	209.091	231.971	30.731	311.383
3260	16.295	669.193	1216.572	485.656	445.607	1110.348	277.704	375.551	1098.088	583.577	455.006	978.31	440.35	304.062	670.292	266.779	255.133	658.855	499.505	112.086	674.481	356.501	286.172	104.269	226.517	456.042	42.224	230.792	189.196	47.718	515.753	327.668	90.717	483.242	285.684	98.745	568.318	404.17	38.884	289.014	369.007	44.419	188.834	173.384	54.617	264.431	291.214	97.79	322.149	523.411	281.042	247.15	474.483	216.934	226.578	469.108	35.102	598.748	417.606	36.25	538.577	360.434	36.4	633.35	485.358	500.464	248.419	419.493	548.182	234.852	390.155	500.025	205.985	366.587	422.286	540.638	404.266	466.975	567.626	472.309	420.391	562.972	506.067	293.137	588.171	447.668	229.372	586.232	456.684	336.681	584.696	483.172	323.53	231.303	422.959	253.897	213.18	401.7	274.942	586.535	460.759	447.828	219.128	439.075	373.996	535.542	220.388	46.171	577.257	262.97	19.13	489.702	224.613	41.314	208.956	231.878	30.507	311.331
3261	16.3	669.502	1219.886	485.383	445.549	1113.612	277.598	375.688	1101.265	583.441	455.315	981.597	440.242	304.378	673.002	266.984	255.49	661.741	499.618	112.431	677.621	356.673	285.789	104.061	226.324	455.936	42.307	230.839	188.992	47.194	515.945	327.383	90.626	483.502	285.141	98.416	568.535	404.091	38.914	289.022	368.918	44.365	188.796	173.18	54.024	264.301	290.898	97.653	322.026	522.512	281.904	247.22	473.634	217.58	226.392	468.975	35.23	598.638	417.477	36.404	538.641	360.357	36.241	633.468	484.919	501.794	248.393	419.307	549.901	234.868	389.703	501.948	205.967	365.776	423.986	540.804	403.763	468.401	567.805	471.512	421.393	563.066	505.193	293.58	588.263	446.977	229.665	586.397	455.677	337.038	584.98	481.588	324.092	231.196	422.177	254.117	212.909	400.88	275.109	586.865	459.917	449.284	219.117	437.947	375.228	535.648	220.197	45.541	577.568	262.622	19.195	489.679	224.419	40.878	208.801	231.787	30.234	311.285
3262	16.305	669.727	1223.377	485.105	445.464	1116.951	277.484	375.844	1104.534	583.296	455.626	984.964	440.127	304.658	675.819	267.106	255.85	664.688	499.738	112.777	680.832	356.858	285.403	103.837	226.152	455.825	42.398	230.888	188.776	46.698	516.154	327.144	90.505	483.78	284.653	98.096	568.782	404.009	38.944	289.035	368.823	44.314	188.763	172.962	53.393	264.176	290.564	97.491	321.915	521.653	282.855	247.373	472.74	218.25	226.205	468.847	35.374	598.52	417.343	36.548	538.723	360.278	36.086	633.585	484.435	503.148	248.366	419.077	551.654	234.88	389.211	503.908	205.955	364.943	425.791	541.046	403.263	469.939	568.001	470.695	422.496	563.185	504.277	294.068	588.344	446.266	229.981	586.567	454.633	337.453	585.306	479.85	324.488	231.045	421.346	254.334	212.661	400.044	275.293	587.224	458.955	450.741	219.149	436.778	376.538	535.843	220.005	44.903	577.882	262.224	19.275	489.621	224.199	40.432	208.627	231.704	29.919	311.247
3263	16.31	669.869	1227.033	484.822	445.353	1120.355	277.364	376.007	1107.888	583.151	455.947	988.406	440.007	304.951	678.701	267.323	256.212	667.697	499.865	113.127	684.108	357.054	285.019	103.6	226.001	455.711	42.495	230.938	188.556	46.247	516.371	326.951	90.371	484.07	284.236	97.783	569.058	403.923	38.973	289.051	368.725	44.267	188.734	172.739	52.737	264.056	290.217	97.311	321.817	520.85	283.908	247.586	471.807	218.95	226.017	468.729	35.538	598.399	417.217	36.69	538.809	360.199	35.942	633.698	483.907	504.527	248.338	418.808	553.443	234.888	388.683	505.905	205.948	364.091	427.698	541.357	402.762	471.588	568.225	469.859	423.704	563.331	503.312	294.626	588.403	445.536	230.338	586.742	453.558	337.947	585.667	477.931	324.756	230.872	420.443	254.58	212.448	399.195	275.509	587.603	457.892	452.209	219.214	435.574	377.93	536.123	219.82	44.277	578.188	261.793	19.366	489.528	223.967	39.979	208.446	231.633	29.568	311.215
3264	16.315	669.932	1230.841	484.537	445.216	1123.82	277.238	376.168	1111.32	583.015	456.284	991.918	439.887	305.155	681.645	267.475	256.576	670.767	499.996	113.483	687.446	357.257	284.641	103.357	225.871	455.594	42.597	230.989	188.337	45.85	516.586	326.784	90.251	484.359	283.902	97.472	569.363	403.834	39.002	289.07	368.624	44.224	188.708	172.518	52.072	263.945	289.862	97.122	321.727	520.086	285.058	247.819	470.843	219.685	225.824	468.622	35.722	598.277	417.109	36.842	538.882	360.122	35.81	633.804	483.338	505.935	248.308	418.51	555.271	234.891	388.127	507.941	205.946	363.222	429.7	541.725	402.257	473.34	568.478	469.001	425.013	563.502	502.286	295.278	588.422	444.789	230.747	586.921	452.457	338.527	586.049	475.848	324.944	230.693	419.453	254.881	212.274	398.334	275.768	587.989	456.76	453.704	219.294	434.34	379.407	536.474	219.648	43.678	578.476	261.345	19.462	489.407	223.739	39.521	208.271	231.575	29.191	311.19
3265	16.32	669.921	1234.787	484.248	445.056	1127.341	277.111	376.319	1114.826	582.889	456.644	995.497	439.772	305.46	684.7	267.597	256.941	673.899	500.132	113.841	690.841	357.469	284.271	103.109	225.757	455.477	42.703	231.04	188.126	45.507	516.795	326.615	90.17	484.633	283.651	97.158	569.695	403.745	39.03	289.092	368.521	44.185	188.684	172.305	51.41	263.842	289.503	96.932	321.643	519.312	286.27	248.025	469.854	220.457	225.627	468.527	35.923	598.161	417.028	37.01	538.934	360.048	35.691	633.901	482.732	507.376	248.277	418.196	557.137	234.894	387.552	510.016	205.952	362.338	431.785	542.131	401.74	475.179	568.76	468.12	426.41	563.694	501.19	296.045	588.381	444.024	231.22	587.103	451.336	339.186	586.427	473.682	325.127	230.517	418.375	255.252	212.141	397.46	276.079	588.364	455.596	455.244	219.37	433.082	380.965	536.877	219.493	43.117	578.742	260.903	19.556	489.271	223.528	39.06	208.116	231.532	28.798	311.17
3266	16.325	669.842	1238.857	483.954	444.875	1130.915	276.982	376.464	1118.404	582.771	457.03	999.141	439.667	305.634	687.682	267.798	257.308	677.093	500.272	114.198	694.293	357.693	283.912	102.862	225.656	455.361	42.811	231.091	187.927	45.211	516.993	326.422	90.149	484.881	283.473	96.843	570.044	403.654	39.058	289.115	368.42	44.15	188.663	172.102	50.761	263.746	289.144	96.747	321.561	518.456	287.494	248.169	468.849	221.261	225.428	468.44	36.129	598.059	416.973	37.192	538.967	359.977	35.583	633.989	482.091	508.851	248.245	417.873	559.043	234.9	386.964	512.131	205.969	361.437	433.94	542.552	401.203	477.092	569.06	467.216	427.882	563.898	500.011	296.942	588.264	443.236	231.762	587.293	450.194	339.898	586.774	471.543	325.384	230.349	417.214	255.699	212.044	396.571	276.442	588.712	454.429	456.839	219.426	431.804	382.597	537.304	219.354	42.605	578.982	260.487	19.642	489.134	223.34	38.597	207.984	231.503	28.401	311.154
